<svg xmlns="http://www.w3.org/2000/svg" version="1.0" width="1080.000000" height="1104.000000" preserveAspectRatio="xMidYMid meet">
    <rect id="backgroundrect" width="100%" height="100%" x="0" y="0" fill="none" stroke="none" />
    <metadata>
Created by potrace 1.10, written by Peter Selinger 2001-2011
</metadata>

    <g class="currentLayer" style="">
        <title>Layer 1</title>
        <rect fill="#ffffff" stroke="#222222" stroke-width="2" stroke-linejoin="round" stroke-dashoffset="" fill-rule="nonzero" id="svg_5" x="260" y="222" width="616" height="666" style="color: rgb(0, 0, 0);" class="selected" opacity="1" fill-opacity="1" />
        <g transform="translate(0,1104) scale(0.10000000149011612,-0.10000000149011612) " fill="#274f81" stroke="none" id="svg_1">
            <path d="M2605 10750 c-173 -9 -359 -26 -445 -41 -138 -23 -286 -51 -315 -60 -88 -26 -337 -110 -352 -118 -10 -5 -53 -26 -97 -46 -109 -51 -243 -134 -361 -224 -118 -90 -321 -287 -396 -386 -30 -38 -56 -72 -59 -75 -3 -3 -28 -39 -54 -80 -27 -41 -56 -86 -66 -100 -26 -38 -140 -276 -140 -292 0 -8 -4 -18 -9 -23 -8 -9 -64 -170 -90 -260 -14 -46 -27 -118 -41 -225 -6 -41 -15 -104 -21 -140 -25 -155 -30 -666 -29 -3238 1 -2547 5 -3018 30 -3187 5 -38 14 -101 20 -140 15 -103 28 -171 39 -208 6 -17 20 -61 31 -97 93 -291 236 -561 409 -775 83 -103 265 -282 356 -351 68 -51 122 -88 240 -161 44 -28 284 -143 297 -143 8 0 18 -4 23 -8 17 -15 162 -62 280 -92 64 -16 108 -25 274 -59 29 -6 119 -16 200 -22 201 -14 6180 -6 6271 9 36 5 99 15 140 21 136 20 395 84 450 112 8 4 35 15 60 25 61 24 298 140 335 164 17 11 37 23 45 27 39 20 133 88 210 153 193 162 211 181 349 346 30 35 162 229 182 266 30 57 123 245 137 278 8 19 19 43 23 52 5 10 13 34 18 55 6 21 18 63 27 93 19 65 40 167 54 265 6 39 16 99 22 135 17 88 24 6198 8 6400 -21 274 -32 352 -67 480 -34 127 -43 154 -88 255 -91 210 -223 433 -337 569 -142 168 -331 336 -518 458 -87 57 -346 188 -372 188 -8 0 -18 4 -24 8 -9 9 -143 54 -254 86 -147 42 -223 56 -415 76 -55 6 -134 16 -175 22 -86 13 -5562 20 -5805 8z m2923 -2636 c58 -29 265 -179 337 -245 22 -20 112 -94 200 -164 88 -71 162 -131 165 -135 3 -3 61 -51 130 -105 69 -55 157 -127 196 -160 39 -33 101 -85 139 -115 37 -30 87 -71 110 -90 78 -66 130 -108 184 -152 144 -115 186 -148 263 -207 46 -36 135 -108 198 -161 63 -52 147 -120 185 -150 156 -122 207 -174 236 -237 l21 -47 2 -1335 1 -1336 -22 -59 c-33 -86 -64 -121 -125 -143 -51 -17 -146 -18 -2308 -18 -2408 0 -2282 -2 -2401 47 -26 11 -52 31 -62 47 -33 56 -37 223 -40 1491 -2 1336 -3 1320 48 1399 28 45 72 85 210 191 60 46 119 92 130 101 11 9 79 63 150 120 72 57 173 139 225 182 52 44 104 87 115 96 11 9 41 31 67 49 26 18 52 38 60 44 12 12 154 126 258 207 25 19 47 38 50 41 22 23 161 138 230 191 47 35 123 95 170 132 47 38 117 94 155 125 39 31 72 58 75 61 24 27 168 145 268 220 106 80 172 121 232 144 28 12 91 -1 148 -29z" id="svg_2" />
            <path d="M5225 7404 c-93 -75 -181 -146 -195 -158 -14 -11 -56 -46 -95 -76 -85 -67 -90 -71 -190 -157 -114 -96 -159 -133 -251 -205 -221 -171 -299 -233 -304 -238 -6 -6 -153 -123 -290 -231 -52 -41 -151 -117 -220 -168 -161 -120 -188 -146 -212 -201 -19 -44 -20 -69 -18 -1108 0 -584 3 -1069 7 -1077 4 -13 71 -15 472 -15 276 0 472 4 481 10 13 8 16 84 21 542 6 555 6 553 52 716 25 86 88 212 149 293 113 154 247 264 398 327 121 51 159 61 280 72 184 17 339 -6 478 -71 35 -16 66 -29 69 -29 3 0 49 -29 102 -64 231 -154 356 -319 434 -576 19 -61 20 -101 23 -620 2 -305 6 -565 9 -578 l5 -22 468 2 467 3 7 45 c3 25 7 504 7 1066 1 1173 7 1088 -87 1176 -32 29 -89 74 -127 100 -39 26 -108 77 -155 114 -164 129 -286 228 -350 284 -36 31 -85 71 -110 90 -25 19 -49 40 -55 46 -15 16 -232 196 -375 309 -69 55 -127 102 -130 105 -3 3 -45 37 -95 75 -49 38 -92 72 -95 75 -3 4 -54 44 -115 90 -60 47 -112 87 -115 90 -14 15 -98 78 -117 88 -12 7 -30 12 -40 12 -10 0 -94 -62 -188 -136z" id="svg_3" />
            <path d="M5320 5210 c-116 -20 -275 -131 -321 -224 -53 -107 -52 -95 -58 -661 -4 -296 -2 -536 3 -542 6 -10 113 -13 477 -13 l468 0 13 23 c17 30 18 873 0 995 -41 292 -289 472 -582 422z" id="svg_4" />
        </g>
    </g>
</svg>